<svg width="188" height="124" viewBox="0 0 188 124" fill="none" xmlns="http://www.w3.org/2000/svg">
<path fill-rule="evenodd" clip-rule="evenodd" d="M66.9198 122.604C84.4739 120.892 102.138 121.263 119.549 123.691C138.333 126.309 152.865 111.959 161.679 93.0569C177.977 85.4316 188 75.0591 188 63.6303C188 54.3898 181.447 45.8398 170.324 38.874C169.796 35.9098 169.047 33.1618 168.068 30.699C162.51 16.7207 148.39 6.99335 134.116 3.9411C107.513 -1.66937 79.2387 -1.27108 52.7722 5.01724C38.1685 8.4831 20.8729 19.6542 17.9377 35.241C17.7052 36.4756 17.5055 37.7594 17.3391 39.0862C6.42034 46.0131 0 54.4834 0 63.6303C0 74.8599 9.67681 85.0697 25.4741 92.6557C33.4422 110.779 47.0228 124.546 66.9198 122.604Z" fill="currentColor"/>
<path d="M184 63.5514C184 85.8367 143.705 103.902 93.9998 103.902C44.294 103.902 4 85.8367 4 63.5514C4 41.2661 44.294 23.201 93.9998 23.201C143.705 23.201 184 41.2661 184 63.5514Z" fill="#151718"/>
<path d="M14.5063 82.4876C16.1028 83.8324 17.8639 85.1298 19.7776 86.3798C15.1149 72.9904 13.0953 58.125 13.5838 45.4135C12.1133 46.7218 10.7968 48.0702 9.64502 49.4551C9.68664 59.9363 11.2787 71.5072 14.5063 82.4876" fill="#26292B"/>
<path d="M178.33 49.4259C177.173 48.0374 175.85 46.6853 174.373 45.377C175.128 58.2052 172.551 73.3293 167.413 86.8973C169.406 85.64 171.242 84.328 172.909 82.9723C176.508 71.7805 178.384 60.0128 178.33 49.4259" fill="#26292B"/>
<path d="M93.9998 102.902C118.745 102.902 141.1 98.4031 157.23 91.1711C165.297 87.5547 171.763 83.2743 176.2 78.5716C180.631 73.8742 183 68.8004 183 63.5514C183 58.3025 180.631 53.2287 176.2 48.5313C171.763 43.8286 165.297 39.5482 157.23 35.9317C141.1 28.6998 118.745 24.201 93.9998 24.201C69.2544 24.201 46.8999 28.6998 30.7693 35.9317C22.7029 39.5482 16.2365 43.8286 11.8 48.5313C7.36851 53.2287 5 58.3025 5 63.5514C5 68.8004 7.36851 73.8742 11.8 78.5716C16.2365 83.2743 22.7029 87.5547 30.7693 91.1711C46.8999 98.4031 69.2544 102.902 93.9998 102.902Z" stroke="#313538" stroke-width="2"/>
<path d="M67.9756 118.676L67.9757 118.676C84.8607 117.039 101.851 117.394 118.599 119.716C136.763 122.231 150.855 107.655 159.098 88.4472C163.196 78.8952 165.785 68.3153 166.661 58.4111C167.537 48.4916 166.687 39.3336 163.987 32.585C158.818 19.6643 145.625 10.5816 132.201 7.72865C106.876 2.42046 79.9541 2.79733 54.7564 8.7477L54.7561 8.74776C47.8985 10.3654 40.398 13.7866 34.2806 18.6147C28.1586 23.4463 23.5026 29.6194 22.1569 36.722L21.1744 36.5358L22.1569 36.722C19.4402 51.0596 21.4722 72.5789 28.9796 90.0229C36.4923 107.479 49.2939 120.488 67.9756 118.676Z" fill="#1A1D1E" stroke="#313538" stroke-width="2"/>
<path d="M158.797 91.5548C166.578 74.9657 169.707 54.6847 167.076 39.9943H167.076C169.708 54.6884 166.583 74.962 158.8 91.5512L158.797 91.5548Z" fill="#D5DEE2"/>
<path d="M158.797 91.5548C166.578 74.9657 169.707 54.6847 167.076 39.9943H167.076C169.708 54.6884 166.583 74.962 158.8 91.5512L158.797 91.5548Z" fill="#043340"/>
<path d="M130.929 93.5956C124.489 96.0956 117.593 97.6262 111.242 98.4936C91.0216 101.26 66.7408 99.8129 49.0195 88.8506C41.0613 83.9307 34.8803 76.5764 33.3839 67.1484C33.2638 66.3867 33.1433 65.6287 33.0232 64.8707C30.1632 46.8493 43.354 30.3075 61.5772 28.8935C83.5545 27.1879 105.631 27.1879 127.609 28.8935C145.832 30.3075 159.023 46.8493 156.163 64.8707C156.05 65.585 155.937 66.2993 155.823 67.0172C153.652 80.6982 143.104 88.8725 130.929 93.5956Z" fill="#151718"/>
<g clip-path="url(#clip0_1133_11943)">
<path d="M81.618 57.217C83.1418 54.2078 85.6354 51.8001 88.6961 50.3825C91.7568 48.965 95.206 48.6204 98.4866 49.4045C101.767 50.1885 104.688 52.0554 106.777 54.7036C108.866 57.3519 110.001 60.627 110 64" stroke="#9BA1A6" stroke-width="2" stroke-linecap="round" stroke-linejoin="round"/>
<path d="M82.617 49.22L81.617 57.22L89.617 56.22" stroke="#9BA1A6" stroke-width="2" stroke-linecap="round" stroke-linejoin="round"/>
<path d="M107.623 72.087C108.438 70.8253 109.058 69.4473 109.461 68" stroke="#9BA1A6" stroke-width="2" stroke-linecap="round" stroke-linejoin="round"/>
<path d="M100.228 78.0541C101.68 77.5153 103.04 76.755 104.26 75.8" stroke="#9BA1A6" stroke-width="2" stroke-linecap="round" stroke-linejoin="round"/>
<path d="M82.876 72.807C83.7027 73.9442 84.6846 74.9601 85.793 75.825" stroke="#9BA1A6" stroke-width="2" stroke-linecap="round" stroke-linejoin="round"/>
<path d="M90.2 78.2C91.7456 78.727 93.3671 78.9973 95 79C95.106 79 95.21 78.989 95.315 78.987" stroke="#9BA1A6" stroke-width="2" stroke-linecap="round" stroke-linejoin="round"/>
<path d="M80 64C80.0003 65.4656 80.2159 66.9231 80.64 68.326" stroke="#9BA1A6" stroke-width="2" stroke-linecap="round" stroke-linejoin="round"/>
</g>
<defs>
<clipPath id="clip0_1133_11943">
<rect width="32" height="32" fill="white" transform="translate(79 48)"/>
</clipPath>
</defs>
</svg>
