<svg width="924" height="643" viewBox="0 0 924 643" fill="none" xmlns="http://www.w3.org/2000/svg">
<path d="M184 547C310.069 648.432 615.653 694.801 731 553C846.348 411.199 908.399 -9.73227 573.336 1.1662C328.71 9.12078 57.9307 445.568 184 547Z" fill="#1A1D1E"/>
<path d="M834.023 523.212C814.943 515.828 838.046 433.721 868.81 424.325C899.579 414.929 932.876 461.827 920.915 488.316C908.954 514.804 867.141 536.027 834.023 523.212Z" fill="#1A1D1E"/>
<path d="M81.123 290.16C98.6218 298.362 69.0567 371.193 40.0237 376.449C10.9957 381.705 -8.04545 339.722 3.34711 318.976C14.7348 298.225 55.785 278.284 81.123 290.16" fill="#1A1D1E"/>
<path d="M790.491 334.96C790.491 416.493 643.324 482.587 461.787 482.587C280.248 482.587 133.084 416.493 133.084 334.96C133.084 253.427 280.248 187.333 461.787 187.333C643.324 187.333 790.491 253.427 790.491 334.96Z" fill="#3A3F42"/>
<path d="M171.456 404.24C177.287 409.16 183.719 413.907 190.708 418.48C173.679 369.493 166.303 315.107 168.087 268.6C162.716 273.387 157.908 278.32 153.701 283.387C153.853 321.733 159.668 364.067 171.456 404.24" fill="url(#paint0_linear_1133_9786)"/>
<path d="M769.781 283.28C765.556 278.2 760.725 273.253 755.329 268.467C758.087 315.4 748.677 370.733 729.911 420.373C737.189 415.773 743.895 410.973 749.983 406.013C763.129 365.067 769.98 322.013 769.781 283.28" fill="url(#paint1_linear_1133_9786)"/>
<path d="M551.127 544.067C490.244 535.613 428.476 534.32 367.092 540.28C225.917 554 175.679 342.547 195.809 236.12C206.073 181.853 266.553 142.96 317.62 130.893C410.169 109 509.04 107.613 602.065 127.147C651.981 137.773 701.355 171.64 720.791 220.307C761.388 321.973 689.031 563.2 551.127 544.067Z" fill="url(#paint2_radial_1133_9786)"/>
<path d="M566.499 545.133H566.496H566.499ZM566.541 545.133C624.776 545.107 670.083 497.973 698.443 437.413L698.453 437.4C670.088 497.973 624.78 545.12 566.541 545.133ZM551.627 544.133C551.601 544.133 551.573 544.12 551.548 544.12C551.573 544.12 551.601 544.133 551.627 544.133ZM551.127 544.067C550.572 543.987 550.02 543.907 549.467 543.84C550.02 543.907 550.572 543.987 551.127 544.067ZM549.403 543.827C548.931 543.76 548.451 543.693 547.979 543.64C548.451 543.693 548.931 543.76 549.403 543.827ZM356.94 540.893C360.263 540.813 363.663 540.613 367.092 540.28C392.381 537.827 417.731 536.6 443.063 536.6C417.736 536.6 392.379 537.827 367.093 540.28C363.655 540.613 360.271 540.813 356.94 540.893ZM728.681 248.773H728.68C726.884 238.72 724.357 229.4 721.067 221C724.357 229.4 726.884 238.72 728.681 248.773ZM720.983 220.787C720.919 220.627 720.855 220.467 720.791 220.307C720.855 220.467 720.919 220.627 720.983 220.787ZM720.791 220.307C717.375 211.747 713.033 203.653 707.927 196.067C713.033 203.653 717.375 211.747 720.791 220.307ZM707.9 196.027C707.852 195.947 707.804 195.88 707.756 195.813C707.805 195.88 707.852 195.947 707.9 196.027ZM707.72 195.76C707.676 195.693 707.633 195.627 707.589 195.56C707.633 195.627 707.676 195.693 707.72 195.76ZM707.501 195.44C707.473 195.387 707.449 195.36 707.42 195.32C707.448 195.36 707.475 195.4 707.501 195.44ZM707.315 195.16C707.292 195.133 707.272 195.093 707.249 195.067C707.271 195.093 707.293 195.133 707.315 195.16ZM707.139 194.907C707.119 194.88 707.099 194.84 707.079 194.813C707.099 194.84 707.119 194.88 707.139 194.907ZM706.947 194.627C706.935 194.6 706.923 194.587 706.909 194.573C706.921 194.587 706.935 194.6 706.947 194.627ZM706.763 194.36C706.753 194.347 706.747 194.333 706.739 194.32C706.747 194.333 706.755 194.347 706.763 194.36ZM706.583 194.093C706.577 194.093 706.572 194.08 706.567 194.08C706.572 194.08 706.577 194.093 706.583 194.093ZM706.409 193.853C706.403 193.84 706.399 193.84 706.393 193.827C706.399 193.84 706.403 193.84 706.409 193.853ZM706.229 193.6C706.227 193.587 706.223 193.587 706.221 193.587C706.224 193.587 706.227 193.587 706.229 193.6ZM706.051 193.347C706.048 193.347 706.049 193.347 706.048 193.333C706.048 193.347 706.049 193.347 706.051 193.347Z" fill="#D5DEE2"/>
<path d="M698.443 437.413C726.861 376.72 738.291 302.52 728.68 248.773H728.681C738.293 302.533 726.88 376.707 698.453 437.4L698.443 437.413Z" fill="#D5DEE2"/>
<path d="M698.443 437.413C726.861 376.72 738.291 302.52 728.68 248.773H728.681C738.293 302.533 726.88 376.707 698.453 437.4L698.443 437.413Z" fill="#043340"/>
<path opacity="0.45" d="M566.499 545.133H566.496C561.629 545.133 556.671 544.813 551.627 544.133C551.601 544.133 551.573 544.12 551.548 544.12C551.405 544.107 551.269 544.08 551.127 544.067C550.572 543.987 550.02 543.907 549.467 543.84C549.444 543.827 549.425 543.827 549.403 543.827C548.931 543.76 548.451 543.693 547.979 543.64C513.207 538.947 478.161 536.6 443.063 536.6C417.731 536.6 392.381 537.827 367.092 540.28C363.663 540.613 360.263 540.813 356.94 540.893C356.007 540.907 355.081 540.92 354.156 540.92C311.028 540.92 277.041 519.16 251.539 486.28C271.976 501.64 296.064 510.76 323.989 510.76C328.215 510.76 332.532 510.547 336.933 510.12C362.219 507.667 387.567 506.44 412.895 506.44C449.052 506.44 485.164 508.933 520.968 513.907C526.195 514.627 531.305 514.987 536.341 514.987C664.172 514.96 729.689 287.96 690.631 190.147C686.315 179.333 680.523 169.267 673.576 160.013C686.019 169.52 697.101 180.693 706.048 193.333C706.049 193.347 706.048 193.347 706.051 193.347C706.108 193.427 706.164 193.507 706.221 193.587C706.223 193.587 706.227 193.587 706.229 193.6C706.283 193.667 706.34 193.747 706.393 193.827C706.399 193.84 706.403 193.84 706.409 193.853C706.461 193.92 706.515 194 706.567 194.08C706.572 194.08 706.577 194.093 706.583 194.093C706.635 194.173 706.687 194.253 706.739 194.32C706.747 194.333 706.753 194.347 706.763 194.36C706.812 194.427 706.86 194.493 706.909 194.573C706.923 194.587 706.934 194.6 706.946 194.627C706.99 194.693 707.035 194.747 707.079 194.813C707.099 194.84 707.119 194.88 707.139 194.907C707.176 194.96 707.213 195.013 707.249 195.067C707.272 195.093 707.292 195.133 707.315 195.16C707.349 195.213 707.385 195.267 707.42 195.32C707.449 195.36 707.473 195.387 707.501 195.44C707.531 195.48 707.56 195.52 707.589 195.56C707.633 195.627 707.676 195.693 707.72 195.76C707.732 195.773 707.745 195.787 707.756 195.813C707.804 195.88 707.852 195.947 707.9 196.027C707.908 196.04 707.919 196.053 707.927 196.067C713.033 203.653 717.374 211.747 720.79 220.307C720.854 220.467 720.919 220.627 720.983 220.787C721.011 220.867 721.039 220.933 721.067 221C724.357 229.4 726.884 238.72 728.68 248.773C738.29 302.52 726.861 376.72 698.443 437.413C670.083 497.973 624.776 545.107 566.541 545.133C566.524 545.133 566.516 545.133 566.499 545.133" fill="url(#paint3_linear_1133_9786)"/>
<path d="M596.663 444.88C573.14 454.027 547.955 459.627 524.759 462.8C450.909 472.92 362.229 467.627 297.507 427.52C268.441 409.52 245.867 382.613 240.401 348.12C239.963 345.333 239.523 342.56 239.084 339.787C228.639 273.853 276.815 213.333 343.371 208.16C423.637 201.92 504.268 201.92 584.535 208.16C651.091 213.333 699.267 273.853 688.824 339.787C688.411 342.4 687.996 345.013 687.581 347.64C679.653 397.693 641.127 427.6 596.663 444.88" fill="url(#paint4_radial_1133_9786)"/>
<path d="M596.663 444.88C573.14 454.027 547.955 459.627 524.759 462.8C450.909 472.92 362.229 467.627 297.507 427.52C268.441 409.52 245.867 382.613 240.401 348.12C239.963 345.333 239.523 342.56 239.084 339.787C228.639 273.853 276.815 213.333 343.371 208.16C423.637 201.92 504.268 201.92 584.535 208.16C651.091 213.333 699.267 273.853 688.824 339.787C688.411 342.4 687.996 345.013 687.581 347.64C679.653 397.693 641.127 427.6 596.663 444.88" fill="url(#paint5_radial_1133_9786)"/>
<path opacity="0.25" fill-rule="evenodd" clip-rule="evenodd" d="M522.59 446.948L522.586 446.948C450.387 456.842 366.101 451.203 305.934 413.92L305.931 413.917C279.629 397.629 260.75 374.29 256.205 345.624C255.888 343.607 255.569 341.594 255.252 339.59C255.13 338.821 255.009 338.053 254.887 337.287L254.887 337.283C245.916 280.656 287.28 228.568 344.611 224.112C424.052 217.936 503.853 217.936 583.294 224.112L584.535 208.16C504.268 201.92 423.637 201.92 343.371 208.16C276.815 213.333 228.639 273.853 239.084 339.787C239.206 340.557 239.328 341.328 239.45 342.098C239.767 344.102 240.084 346.107 240.401 348.12C245.867 382.613 268.441 409.52 297.507 427.52C362.229 467.627 450.909 472.92 524.759 462.8C547.955 459.627 573.14 454.027 596.663 444.88L590.864 429.968C568.804 438.546 544.901 443.895 522.59 446.948ZM687.581 347.64C679.653 397.693 641.127 427.6 596.663 444.88L590.867 429.967C632.938 413.617 665.136 387.048 671.777 345.145C672.034 343.515 672.293 341.885 672.55 340.26C672.707 339.266 672.864 338.275 673.02 337.287L673.021 337.284C681.99 280.656 640.625 228.568 583.294 224.112L584.535 208.16C651.091 213.333 699.267 273.853 688.824 339.787C688.669 340.765 688.514 341.744 688.359 342.723C688.1 344.359 687.841 345.997 687.581 347.64Z" fill="url(#paint6_linear_1133_9786)"/>
<path opacity="0.1" d="M551.127 544.067C490.244 535.613 428.476 534.32 367.092 540.28C225.917 554 175.679 342.547 195.809 236.12C206.073 181.853 266.553 142.96 317.62 130.893C410.169 109 509.04 107.613 602.065 127.147C651.981 137.773 701.355 171.64 720.791 220.307C761.388 321.973 689.031 563.2 551.127 544.067Z" fill="black"/>
<path d="M526.225 396.853C526.225 409.573 499.757 431.747 467.107 431.747C434.456 431.747 407.987 409.573 407.987 396.853C407.987 384.12 434.456 385.627 467.107 385.627C499.757 385.627 526.225 384.12 526.225 396.853Z" fill="#EEF1FD"/>
<path d="M381.975 316.36C381.975 326.853 373.463 335.36 362.963 335.36C352.463 335.36 343.949 326.853 343.949 316.36C343.949 305.853 352.463 297.347 362.963 297.347C373.463 297.347 381.975 305.853 381.975 316.36Z" fill="#EEF1FD"/>
<path d="M579.433 310.267C579.433 320.773 570.921 329.28 560.421 329.28C549.921 329.28 541.409 320.773 541.409 310.267C541.409 299.773 549.921 291.267 560.421 291.267C570.921 291.267 579.433 299.773 579.433 310.267Z" fill="#EEF1FD"/>
<defs>
<linearGradient id="paint0_linear_1133_9786" x1="172.961" y1="419.524" x2="172.961" y2="277.967" gradientUnits="userSpaceOnUse">
<stop stop-color="#1BEBB9"/>
<stop offset="1" stop-color="#FF9254"/>
</linearGradient>
<linearGradient id="paint1_linear_1133_9786" x1="750.663" y1="421.431" x2="750.663" y2="277.961" gradientUnits="userSpaceOnUse">
<stop stop-color="#1BEBB9"/>
<stop offset="1" stop-color="#FF9254"/>
</linearGradient>
<radialGradient id="paint2_radial_1133_9786" cx="0" cy="0" r="1" gradientUnits="userSpaceOnUse" gradientTransform="translate(328 170) rotate(50.688) scale(356.724 446.592)">
<stop stop-color="#9BA1A6"/>
<stop offset="1" stop-color="#697177"/>
</radialGradient>
<linearGradient id="paint3_linear_1133_9786" x1="702" y1="919" x2="491.78" y2="160.013" gradientUnits="userSpaceOnUse">
<stop stop-color="#4C5155"/>
<stop offset="1" stop-color="#697177"/>
</linearGradient>
<radialGradient id="paint4_radial_1133_9786" cx="0" cy="0" r="1" gradientUnits="userSpaceOnUse" gradientTransform="translate(463.954 335.365) rotate(-90) scale(131.885 226.295)">
<stop stop-color="#4C5155"/>
<stop offset="1" stop-color="#26292B"/>
</radialGradient>
<radialGradient id="paint5_radial_1133_9786" cx="0" cy="0" r="1" gradientUnits="userSpaceOnUse" gradientTransform="translate(463.954 335.365) rotate(-90) scale(131.885 226.295)">
<stop stop-color="#4C5155"/>
<stop offset="1" stop-color="#26292B"/>
</radialGradient>
<linearGradient id="paint6_linear_1133_9786" x1="591.5" y1="483" x2="352" y2="185" gradientUnits="userSpaceOnUse">
<stop stop-color="#2B2F31"/>
<stop offset="1" stop-color="#697177"/>
</linearGradient>
</defs>
</svg>
